<svg width="117" height="46" viewBox="0 0 117 46" fill="none" xmlns="http://www.w3.org/2000/svg">
<rect width="117" height="46" rx="23" fill="url(#paint0_linear_864_304)"/>
<path d="M65.25 35.5V13C65.25 12.3125 65.4703 11.724 65.9109 11.2344C66.3516 10.7448 66.8813 10.5 67.5 10.5H85.5C86.1187 10.5 86.6484 10.7448 87.0891 11.2344C87.5297 11.724 87.75 12.3125 87.75 13V28C87.75 28.6875 87.5297 29.276 87.0891 29.7656C86.6484 30.2552 86.1187 30.5 85.5 30.5H69.75L65.25 35.5ZM68.7938 28H85.5V13H67.5V29.4062L68.7938 28Z" fill="#112C23"/>
<path d="M38.668 28.35H29.548L27.868 33H24.988L32.548 12.21H35.698L43.228 33H40.348L38.668 28.35ZM37.888 26.13L34.108 15.57L30.328 26.13H37.888ZM49.2529 12.09V33H46.5229V12.09H49.2529Z" fill="#112C23"/>
<defs>
<linearGradient id="paint0_linear_864_304" x1="58.5" y1="0" x2="58.5" y2="46" gradientUnits="userSpaceOnUse">
<stop stop-color="#86EE92"/>
<stop offset="1" stop-color="#737373"/>
</linearGradient>
</defs>
</svg>
