<svg width="74" height="38" viewBox="0 0 74 38" fill="none" xmlns="http://www.w3.org/2000/svg">
<path d="M49.25 35.5V13C49.25 12.3125 49.4703 11.724 49.9109 11.2344C50.3516 10.7448 50.8813 10.5 51.5 10.5H69.5C70.1187 10.5 70.6484 10.7448 71.0891 11.2344C71.5297 11.724 71.75 12.3125 71.75 13V28C71.75 28.6875 71.5297 29.276 71.0891 29.7656C70.6484 30.2552 70.1187 30.5 69.5 30.5H53.75L49.25 35.5ZM52.7938 28H69.5V13H51.5V29.4062L52.7938 28Z" fill="#112C23"/>
<path d="M22.668 28.35H13.548L11.868 33H8.98805L16.548 12.21H19.698L27.228 33H24.348L22.668 28.35ZM21.888 26.13L18.108 15.57L14.328 26.13H21.888ZM33.2529 12.09V33H30.5229V12.09H33.2529Z" fill="#112C23"/>
</svg>
