<svg width="86" height="86" viewBox="0 0 86 86" fill="none" xmlns="http://www.w3.org/2000/svg">
<rect width="86" height="86" rx="28" fill="#F3704F"/>
<path d="M31.75 63.25C30.5125 63.25 29.4531 62.8094 28.5719 61.9281C27.6906 61.0469 27.25 59.9875 27.25 58.75V29.5H25V25H36.25V22.75H49.75V25H61V29.5H58.75V58.75C58.75 59.9875 58.3094 61.0469 57.4281 61.9281C56.5469 62.8094 55.4875 63.25 54.25 63.25H31.75ZM54.25 29.5H31.75V58.75H54.25V29.5ZM36.25 54.25H40.75V34H36.25V54.25ZM45.25 54.25H49.75V34H45.25V54.25Z" fill="#FEF7FF"/>
</svg>
