<svg width="86" height="86" viewBox="0 0 86 86" fill="none" xmlns="http://www.w3.org/2000/svg">
<rect width="86" height="86" rx="28" fill="#515151"/>
<path d="M41 27H27C25.9391 27 24.9217 27.4214 24.1716 28.1715C23.4214 28.9217 23 29.9391 23 31V59C23 60.0608 23.4214 61.0782 24.1716 61.8284C24.9217 62.5785 25.9391 63 27 63H55C56.0609 63 57.0783 62.5785 57.8284 61.8284C58.5786 61.0782 59 60.0608 59 59V45M56 24C56.7956 23.2043 57.8748 22.7573 59 22.7573C60.1252 22.7573 61.2044 23.2043 62 24C62.7956 24.7956 63.2426 25.8747 63.2426 27C63.2426 28.1252 62.7956 29.2043 62 30L43 49L35 51L37 43L56 24Z" stroke="#F3F3F3" stroke-width="4" stroke-linecap="round" stroke-linejoin="round"/>
</svg>
