<svg width="76" height="76" viewBox="0 0 76 76" fill="none" xmlns="http://www.w3.org/2000/svg">
<rect width="76" height="76" rx="28" fill="#86EE92"/>
<path d="M36.2331 23.8604H23.8611C22.9235 23.8604 22.0244 24.2328 21.3615 24.8957C20.6986 25.5587 20.3262 26.4578 20.3262 27.3953V52.1395C20.3262 53.077 20.6986 53.9761 21.3615 54.639C22.0244 55.3019 22.9235 55.6744 23.8611 55.6744H48.6052C49.5427 55.6744 50.4419 55.3019 51.1048 54.639C51.7677 53.9761 52.1401 53.077 52.1401 52.1395V39.7674M49.489 21.2092C50.1921 20.5061 51.1457 20.1111 52.1401 20.1111C53.1345 20.1111 54.0882 20.5061 54.7913 21.2092C55.4944 21.9124 55.8894 22.866 55.8894 23.8604C55.8894 24.8548 55.4944 25.8084 54.7913 26.5116L38.0006 43.3023L30.9308 45.0697L32.6983 37.9999L49.489 21.2092Z" stroke="#F3F3F3" stroke-width="4" stroke-linecap="round" stroke-linejoin="round"/>
</svg>
