<svg width="679" height="154" viewBox="0 0 679 154" fill="none" xmlns="http://www.w3.org/2000/svg">
<path fill-rule="evenodd" clip-rule="evenodd" d="M580.317 97.6878C580.813 97.6878 581.309 97.8535 581.668 98.2142C586.908 102.983 593.802 105.617 601.056 105.617C616.914 105.617 629.848 92.6403 629.848 76.6693C629.848 63.1658 620.803 51.5198 607.841 48.3029C607.233 48.1361 606.738 47.7483 606.489 47.1937C606.213 46.6391 606.241 46.0012 606.489 45.4195C608.309 41.648 609.22 37.5169 609.22 33.1356C609.22 17.1083 596.258 4.07588 580.317 4.07588C564.376 4.07588 551.413 17.1083 551.413 33.1356C551.413 37.544 552.324 41.6762 554.143 45.4195C554.419 45.9741 554.419 46.611 554.143 47.1937C553.868 47.7483 553.372 48.1642 552.792 48.3029C539.83 51.4916 530.784 63.1658 530.784 76.6693C530.784 92.6132 543.691 105.617 559.577 105.617C566.83 105.617 573.725 102.983 578.965 98.2142C579.323 97.8535 579.82 97.6878 580.317 97.6878ZM601.084 109.722C593.417 109.722 586.108 107.143 580.317 102.429C574.525 107.143 567.217 109.722 559.549 109.722C550.752 109.722 542.505 106.284 536.3 100.072C530.123 93.861 526.702 85.5425 526.702 76.6964C526.702 69.0711 529.184 61.918 533.873 55.9834C537.9 50.8537 543.388 47.0269 549.511 45.0307C548.076 41.3426 547.332 37.3501 547.332 33.1627C547.332 14.89 562.141 0 580.317 0C598.491 0 613.301 14.89 613.301 33.1627C613.301 37.3501 612.584 41.3155 611.122 45.0307C617.245 47.0551 622.734 50.8818 626.759 55.9834C631.448 61.918 633.93 69.0711 633.93 76.6964C633.93 85.5425 630.511 93.8329 624.332 100.072C618.127 106.284 609.881 109.722 601.084 109.722Z" fill="#112C23"/>
<path fill-rule="evenodd" clip-rule="evenodd" d="M580.317 152.114C578.935 152.114 577.822 151.196 577.822 150.056V41.9565C577.822 40.8162 578.935 39.8984 580.317 39.8984C581.697 39.8984 582.81 40.8162 582.81 41.9565V150.056C582.81 151.196 581.697 152.114 580.317 152.114Z" fill="#112C23"/>
<path fill-rule="evenodd" clip-rule="evenodd" d="M580.65 59.8478C580.082 59.8478 579.485 59.6339 579.038 59.2313L564.715 45.7308C563.88 44.9256 563.909 43.6906 564.775 42.9388C565.671 42.1882 567.042 42.2144 567.878 42.9934L582.201 56.4928C583.037 57.298 583.006 58.5331 582.142 59.2848C581.723 59.6601 581.187 59.8478 580.65 59.8478Z" fill="#112C23"/>
<path fill-rule="evenodd" clip-rule="evenodd" d="M580.021 74.8102C579.484 74.8102 578.948 74.6213 578.5 74.2729C577.606 73.5205 577.606 72.2581 578.441 71.4785L592.747 57.9658C593.582 57.1599 594.983 57.1599 595.846 57.9123C596.741 58.6647 596.741 59.9271 595.907 60.7067L581.601 74.2183C581.183 74.5951 580.587 74.8102 580.021 74.8102Z" fill="#112C23"/>
<path fill-rule="evenodd" clip-rule="evenodd" d="M580.65 87.2785C580.082 87.2785 579.485 87.0635 579.038 86.6609L564.715 73.1619C563.88 72.3567 563.909 71.1217 564.775 70.37C565.671 69.6183 567.042 69.6456 567.878 70.4235L582.201 83.9236C583.037 84.7288 583.006 85.9638 582.142 86.7155C581.723 87.0908 581.187 87.2785 580.65 87.2785Z" fill="#112C23"/>
<path fill-rule="evenodd" clip-rule="evenodd" d="M652.064 124.683C645.974 124.683 640.224 122.669 635.657 119.005C630.977 122.669 625.198 124.683 619.138 124.683C613.612 124.683 608.284 123.033 603.803 119.956C599.376 116.907 596.05 112.683 594.161 107.732C593.766 106.669 594.302 105.465 595.373 105.074C596.445 104.682 597.657 105.214 598.051 106.277C601.322 114.837 609.806 120.571 619.138 120.571C624.776 120.571 630.132 118.529 634.275 114.781C635.094 114.053 636.305 114.053 637.094 114.809C641.097 118.529 646.397 120.571 652.064 120.571C664.552 120.571 674.701 110.556 674.701 98.2206C674.701 87.7578 667.596 78.7788 657.42 76.3453C656.8 76.2054 656.292 75.7858 656.01 75.1979C655.729 74.6384 655.756 73.9675 656.038 73.408C657.448 70.6106 658.152 67.4494 658.152 64.0084C658.152 51.6157 648.061 41.5451 635.629 41.5451C628.666 41.5451 622.154 44.7064 617.728 50.1897C617.023 51.0847 615.699 51.2245 614.797 50.5252C613.894 49.8258 613.753 48.5113 614.458 47.6152C619.673 41.1255 627.369 37.4048 635.6 37.4048C650.316 37.4048 662.297 49.3505 662.297 64.0084C662.297 67.2254 661.761 70.2468 660.718 73.0157C665.51 74.6384 669.795 77.6314 672.981 81.6035C676.786 86.3591 678.816 92.1221 678.816 98.2206C678.872 112.794 666.864 124.683 652.064 124.683Z" fill="#112C23"/>
<path fill-rule="evenodd" clip-rule="evenodd" d="M635.8 152.114C634.764 152.114 633.93 151.199 633.93 150.062V71.8744C633.93 70.7376 634.764 69.8228 635.8 69.8228C636.836 69.8228 637.67 70.7376 637.67 71.8744V150.062C637.67 151.199 636.836 152.114 635.8 152.114Z" fill="#112C23"/>
<path fill-rule="evenodd" clip-rule="evenodd" d="M636.048 98.4996C635.531 98.4996 635.014 98.3058 634.583 97.9452C633.722 97.1699 633.722 95.8662 634.526 95.0627L645.263 84.1684C646.067 83.3368 647.416 83.3368 648.249 84.1132C649.081 84.8896 649.11 86.1922 648.306 86.9957L637.568 97.89C637.167 98.2787 636.622 98.4996 636.048 98.4996Z" fill="#112C23"/>
<path fill-rule="evenodd" clip-rule="evenodd" d="M635.865 107.228C635.397 107.228 634.905 107.027 634.561 106.567L625.704 95.8352C625.015 94.9743 625.04 93.6538 625.753 92.8512C626.491 92.0475 627.623 92.0755 628.311 92.9084L637.168 103.641C637.858 104.501 637.834 105.822 637.119 106.626C636.775 107.027 636.332 107.228 635.865 107.228Z" fill="#112C23"/>
<path fill-rule="evenodd" clip-rule="evenodd" d="M541.54 124.683C535.51 124.683 529.708 122.67 525.031 119.007C520.438 122.67 514.636 124.683 508.494 124.683C501.395 124.683 494.718 121.915 489.647 116.91C484.604 111.903 481.816 105.248 481.816 98.2005C481.816 92.1039 483.844 86.3437 487.647 81.5897C490.831 77.6188 495.14 74.6257 499.902 73.0046C498.86 70.2354 498.324 67.2149 498.324 63.999C498.324 49.3173 510.297 37.4048 525.002 37.4048C533.229 37.4048 540.948 41.1244 546.131 47.6121C546.835 48.5067 546.694 49.8209 545.793 50.52C544.892 51.2191 543.568 51.0793 542.863 50.1846C538.441 44.6757 531.933 41.5438 524.974 41.5438C512.55 41.5438 502.465 51.6386 502.465 63.999C502.465 67.4389 503.169 70.5992 504.578 73.3957C504.859 73.955 504.888 74.6257 504.606 75.185C504.325 75.7443 503.817 76.1922 503.198 76.332C493.056 78.7648 485.957 87.7693 485.957 98.2289C485.957 110.561 496.043 120.573 508.466 120.573C514.213 120.573 519.566 118.531 523.566 114.812C524.355 114.085 525.594 114.057 526.383 114.784C530.495 118.504 535.877 120.573 541.511 120.573C550.836 120.573 559.315 114.84 562.583 106.283C562.977 105.22 564.189 104.688 565.26 105.08C566.331 105.471 566.865 106.674 566.471 107.737C564.583 112.687 561.231 116.91 556.836 119.958C552.386 123.034 547.061 124.683 541.54 124.683Z" fill="#112C23"/>
<path fill-rule="evenodd" clip-rule="evenodd" d="M524.832 152.114C523.795 152.114 522.961 151.199 522.961 150.062V71.8744C522.961 70.7376 523.795 69.8228 524.832 69.8228C525.869 69.8228 526.702 70.7376 526.702 71.8744V150.062C526.677 151.199 525.843 152.114 524.832 152.114Z" fill="#112C23"/>
<path fill-rule="evenodd" clip-rule="evenodd" d="M524.622 87.2784C524.077 87.2784 523.502 87.0567 523.071 86.6414L512.326 75.7611C511.521 74.9305 511.55 73.6564 512.383 72.881C513.245 72.1055 514.567 72.1336 515.371 72.9361L526.116 83.8175C526.921 84.6481 526.891 85.9222 526.059 86.6976C525.657 87.0848 525.14 87.2784 524.622 87.2784Z" fill="#112C23"/>
<path fill-rule="evenodd" clip-rule="evenodd" d="M524.86 98.4998C524.397 98.4998 523.908 98.3021 523.547 97.9065C522.775 97.1143 522.775 95.7852 523.496 94.9643L529.673 87.9219C530.394 87.0734 531.603 87.0734 532.35 87.8656C533.123 88.6578 533.123 89.9869 532.402 90.8067L526.225 97.8502C525.838 98.2744 525.349 98.4998 524.86 98.4998Z" fill="#112C23"/>
<path fill-rule="evenodd" clip-rule="evenodd" d="M524.622 107.228C524.077 107.228 523.502 107.006 523.071 106.591L512.326 95.7103C511.521 94.8797 511.55 93.6057 512.383 92.8302C513.245 92.0547 514.567 92.0829 515.371 92.8854L526.116 103.767C526.921 104.597 526.891 105.871 526.059 106.647C525.657 107.034 525.14 107.228 524.622 107.228Z" fill="#112C23"/>
<path fill-rule="evenodd" clip-rule="evenodd" d="M668.04 152.114H492.593C491.457 152.114 490.544 151.002 490.544 149.619C490.544 148.239 491.457 147.126 492.593 147.126H668.04C669.174 147.126 670.088 148.239 670.088 149.619C670.088 151.002 669.147 152.114 668.04 152.114Z" fill="#112C23"/>
<path d="M445.142 126.674C447.83 127.25 449.974 128.05 451.574 129.074C453.238 130.034 454.518 131.09 455.414 132.242C456.31 133.394 456.886 134.578 457.142 135.794C457.462 136.946 457.622 138.034 457.622 139.058C457.622 141.106 457.206 142.994 456.374 144.722C455.542 146.45 454.326 147.954 452.726 149.234C451.19 150.45 449.302 151.41 447.062 152.114C444.822 152.818 442.294 153.17 439.478 153.17C436.342 153.17 433.398 152.818 430.646 152.114C427.958 151.346 425.814 150.546 424.214 149.714L424.022 148.85L425.462 138.962H427.67L427.958 139.346C427.958 142.418 428.918 144.85 430.838 146.642C432.758 148.37 435.542 149.234 439.19 149.234C441.366 149.234 443.19 148.978 444.662 148.466C446.134 147.954 447.286 147.282 448.118 146.45C449.014 145.618 449.654 144.722 450.038 143.762C450.422 142.802 450.614 141.874 450.614 140.978C450.614 140.402 450.582 139.762 450.518 139.058C450.454 138.29 450.198 137.554 449.75 136.85C449.302 136.082 448.63 135.378 447.734 134.738C446.838 134.034 445.558 133.458 443.894 133.01L434.678 130.706C432.566 130.194 430.838 129.522 429.494 128.69C428.15 127.858 427.094 126.962 426.326 126.002C425.558 124.978 425.014 123.922 424.694 122.834C424.374 121.682 424.214 120.53 424.214 119.378C424.214 117.266 424.63 115.41 425.462 113.81C426.294 112.146 427.414 110.802 428.822 109.778C430.294 108.69 431.99 107.89 433.91 107.378C435.83 106.802 437.91 106.514 440.15 106.514C443.158 106.514 445.91 106.898 448.406 107.666C450.966 108.434 452.95 109.202 454.358 109.97L454.646 110.834L453.59 118.226H451.574L451.19 117.938C451.19 116.466 450.774 115.25 449.942 114.29C449.174 113.266 448.214 112.466 447.062 111.89C445.91 111.25 444.694 110.802 443.414 110.546C442.134 110.29 441.014 110.162 440.054 110.162C436.854 110.162 434.55 110.962 433.142 112.562C431.734 114.162 431.03 115.954 431.03 117.938C431.03 119.41 431.51 120.818 432.47 122.162C433.494 123.442 435.446 124.434 438.326 125.138L445.142 126.674Z" fill="#112C23"/>
<path d="M377.81 116.21C379.474 113.458 381.618 111.154 384.242 109.298C386.866 107.442 390.13 106.514 394.034 106.514C395.826 106.514 397.618 106.77 399.41 107.282C401.202 107.794 402.834 108.594 404.306 109.682C405.842 110.77 407.09 112.178 408.05 113.906C409.074 115.57 409.746 117.554 410.066 119.858C410.258 121.522 410.354 123.282 410.354 125.138C410.418 126.994 410.45 128.85 410.45 130.706C410.45 133.01 410.45 135.346 410.45 137.714C410.514 140.018 410.546 142.322 410.546 144.626C410.674 146.098 410.834 147.186 411.026 147.89C411.218 148.53 411.506 149.01 411.89 149.33C412.466 149.842 413.234 150.162 414.194 150.29C415.218 150.354 416.242 150.386 417.266 150.386L417.554 150.77L417.746 152.114L417.554 152.498C416.466 152.37 415.25 152.274 413.906 152.21C412.562 152.146 411.25 152.114 409.97 152.114C407.538 152.114 405.33 152.21 403.346 152.402L402.674 151.442C402.93 150.61 403.122 149.522 403.25 148.178C403.378 146.834 403.474 145.65 403.538 144.626C403.666 141.938 403.762 139.314 403.826 136.754C403.89 134.13 403.922 131.954 403.922 130.226C403.922 128.754 403.858 127.154 403.73 125.426C403.666 123.698 403.474 122.194 403.154 120.914C402.514 117.906 401.202 115.666 399.218 114.194C397.234 112.722 394.93 111.986 392.306 111.986C390.194 111.986 388.21 112.434 386.354 113.33C384.562 114.226 383.026 115.346 381.746 116.69C380.466 117.97 379.442 119.346 378.674 120.818C377.97 122.226 377.618 123.442 377.618 124.466V135.314C377.618 136.722 377.618 137.874 377.618 138.77C377.618 139.666 377.618 140.434 377.618 141.074C377.682 141.714 377.746 142.322 377.81 142.898C377.874 143.41 377.938 143.986 378.002 144.626C378.13 145.97 378.258 146.994 378.386 147.698C378.578 148.338 378.93 148.882 379.442 149.33C379.954 149.778 380.658 150.066 381.554 150.194C382.514 150.322 383.474 150.386 384.434 150.386L384.914 150.866L385.106 152.114L384.914 152.498C384.466 152.498 383.794 152.466 382.898 152.402C382.002 152.338 381.042 152.274 380.018 152.21C378.994 152.21 378.034 152.178 377.138 152.114C376.242 152.114 375.57 152.114 375.122 152.114H373.778C373.33 152.114 372.626 152.114 371.666 152.114C370.77 152.178 369.81 152.21 368.786 152.21C367.826 152.274 366.866 152.338 365.906 152.402C365.01 152.466 364.338 152.498 363.89 152.498L363.794 152.114L363.89 150.77L364.274 150.386C365.298 150.386 366.29 150.354 367.25 150.29C368.274 150.162 369.042 149.842 369.554 149.33C370.066 148.882 370.386 148.306 370.514 147.602C370.706 146.898 370.866 145.906 370.994 144.626C371.058 143.602 371.122 142.578 371.186 141.554C371.25 140.466 371.282 138.77 371.282 136.466V124.658C371.282 123.314 371.282 122.194 371.282 121.298C371.282 120.338 371.25 119.506 371.186 118.802C371.186 118.098 371.154 117.458 371.09 116.882C371.09 116.306 371.058 115.698 370.994 115.058C370.866 114.354 370.674 113.746 370.418 113.234C370.162 112.658 369.938 112.274 369.746 112.082C369.106 111.314 368.306 110.866 367.346 110.738C366.386 110.546 365.394 110.45 364.37 110.45L363.986 110.066V108.722L364.37 108.434H366.098C367.186 108.434 368.562 108.434 370.226 108.434C371.89 108.37 373.33 108.242 374.546 108.05L377.906 107.57L378.482 108.434C378.162 109.266 377.938 110.418 377.81 111.89C377.682 113.298 377.586 114.674 377.522 116.018L377.81 116.21Z" fill="#112C23"/>
<path d="M356.365 126.29L354.829 126.962C351.373 126.962 347.821 126.994 344.173 127.058C340.525 127.122 336.941 127.154 333.421 127.154H322.093C322.029 127.602 321.997 128.05 321.997 128.498C321.997 128.882 321.997 129.266 321.997 129.65C321.997 132.082 322.349 134.418 323.053 136.658C323.757 138.834 324.845 140.754 326.317 142.418C327.853 144.082 329.805 145.426 332.173 146.45C334.541 147.41 337.421 147.89 340.813 147.89C342.797 147.89 344.909 147.698 347.149 147.314C349.453 146.866 351.565 146.098 353.485 145.01L354.445 145.586V147.314L353.485 148.37C351.949 149.586 349.773 150.706 346.957 151.73C344.141 152.69 341.005 153.17 337.549 153.17C334.157 153.17 331.053 152.626 328.237 151.538C325.485 150.386 323.085 148.786 321.037 146.738C319.053 144.69 317.485 142.258 316.333 139.442C315.245 136.626 314.701 133.49 314.701 130.034C314.701 126.514 315.277 123.314 316.429 120.434C317.581 117.554 319.149 115.09 321.133 113.042C323.181 110.994 325.549 109.394 328.237 108.242C330.989 107.09 333.933 106.514 337.069 106.514C338.733 106.514 340.589 106.738 342.637 107.186C344.749 107.634 346.765 108.498 348.685 109.778C350.605 110.994 352.333 112.754 353.869 115.058C355.405 117.298 356.461 120.274 357.037 123.986L356.365 126.29ZM337.165 110.834C335.117 110.834 333.261 111.186 331.597 111.89C329.997 112.53 328.557 113.426 327.277 114.578C326.061 115.666 325.037 116.978 324.205 118.514C323.437 119.986 322.893 121.554 322.573 123.218H326.317C329.773 123.218 333.133 123.186 336.397 123.122C339.661 122.994 343.085 122.834 346.669 122.642C347.501 122.578 348.045 122.354 348.301 121.97C348.621 121.586 348.781 121.138 348.781 120.626C348.781 120.242 348.749 119.89 348.685 119.57C348.621 119.25 348.525 118.93 348.397 118.61C347.693 116.178 346.381 114.29 344.461 112.946C342.541 111.538 340.109 110.834 337.165 110.834Z" fill="#112C23"/>
<path d="M273.073 97.6819C272.945 95.8899 272.657 94.6419 272.209 93.9379C271.761 93.2339 271.281 92.6579 270.769 92.2099C270.193 91.7619 269.457 91.5059 268.561 91.4419C267.665 91.3139 266.705 91.2499 265.681 91.2499L265.201 90.8659L264.913 89.1379L265.105 88.7539C265.553 88.7539 266.289 88.7859 267.313 88.8499C268.337 88.9139 269.393 88.9779 270.481 89.0419C271.569 89.1059 272.625 89.1699 273.649 89.2339C274.673 89.2979 275.409 89.3299 275.857 89.3299H277.681C278.129 89.3299 278.865 89.2979 279.889 89.2339C280.913 89.1699 281.969 89.1059 283.057 89.0419C284.145 88.9779 285.201 88.9139 286.225 88.8499C287.249 88.7859 287.985 88.7539 288.433 88.7539L288.625 89.1379L288.337 90.8659L287.953 91.2499C286.929 91.2499 285.937 91.3139 284.977 91.4419C284.081 91.5059 283.345 91.7619 282.769 92.2099C282.257 92.6579 281.745 93.2659 281.233 94.0339C280.785 94.7379 280.497 95.9539 280.369 97.6819C280.305 98.5779 280.241 99.4099 280.177 100.178C280.177 100.946 280.177 101.842 280.177 102.866C280.177 103.89 280.177 105.138 280.177 106.61C280.177 108.082 280.177 109.97 280.177 112.274V129.938C280.177 132.178 280.177 134.034 280.177 135.506C280.177 136.978 280.177 138.258 280.177 139.346C280.241 140.434 280.305 141.458 280.369 142.418C280.433 143.378 280.497 144.466 280.561 145.682C280.625 146.898 281.297 147.506 282.577 147.506H290.737C294.577 147.506 297.457 147.442 299.377 147.314C301.361 147.122 302.769 146.77 303.601 146.258C304.497 145.746 305.041 144.978 305.233 143.954C305.425 142.866 305.745 141.458 306.193 139.73L306.481 139.346H308.977L307.249 151.538L306.481 152.498C306.161 152.498 305.553 152.466 304.657 152.402C303.825 152.402 302.833 152.37 301.681 152.306C300.593 152.242 299.441 152.178 298.225 152.114C297.073 152.114 296.081 152.114 295.249 152.114H275.857C275.409 152.114 274.673 152.146 273.649 152.21C272.625 152.274 271.569 152.338 270.481 152.402C269.393 152.466 268.337 152.53 267.313 152.594C266.289 152.658 265.553 152.69 265.105 152.69L264.913 152.306L265.201 150.578L265.681 150.194C266.705 150.194 267.665 150.162 268.561 150.098C269.457 149.97 270.193 149.682 270.769 149.234C271.281 148.786 271.761 148.146 272.209 147.314C272.657 146.482 272.977 145.298 273.169 143.762C273.233 143.314 273.265 142.802 273.265 142.226C273.329 141.586 273.361 140.818 273.361 139.922C273.361 139.026 273.361 137.938 273.361 136.658C273.361 135.378 273.361 133.778 273.361 131.858V112.37C273.361 110.13 273.361 108.242 273.361 106.706C273.361 105.17 273.329 103.858 273.265 102.77C273.265 101.682 273.233 100.754 273.169 99.9859C273.169 99.2179 273.137 98.4499 273.073 97.6819Z" fill="#112C23"/>
<path d="M219.372 116.21C221.036 113.458 223.18 111.154 225.804 109.298C228.428 107.442 231.692 106.514 235.596 106.514C237.388 106.514 239.18 106.77 240.972 107.282C242.764 107.794 244.396 108.594 245.868 109.682C247.404 110.77 248.652 112.178 249.612 113.906C250.636 115.57 251.308 117.554 251.628 119.858C251.82 121.522 251.916 123.282 251.916 125.138C251.98 126.994 252.012 128.85 252.012 130.706C252.012 133.01 252.012 135.346 252.012 137.714C252.076 140.018 252.108 142.322 252.108 144.626C252.236 146.098 252.396 147.186 252.588 147.89C252.78 148.53 253.068 149.01 253.452 149.33C254.028 149.842 254.796 150.162 255.756 150.29C256.78 150.354 257.804 150.386 258.828 150.386L259.116 150.77L259.308 152.114L259.116 152.498C258.028 152.37 256.812 152.274 255.468 152.21C254.124 152.146 252.812 152.114 251.532 152.114C249.1 152.114 246.892 152.21 244.908 152.402L244.236 151.442C244.492 150.61 244.684 149.522 244.812 148.178C244.94 146.834 245.036 145.65 245.1 144.626C245.228 141.938 245.324 139.314 245.388 136.754C245.452 134.13 245.484 131.954 245.484 130.226C245.484 128.754 245.42 127.154 245.292 125.426C245.228 123.698 245.036 122.194 244.716 120.914C244.076 117.906 242.764 115.666 240.78 114.194C238.796 112.722 236.492 111.986 233.868 111.986C231.756 111.986 229.772 112.434 227.916 113.33C226.124 114.226 224.588 115.346 223.308 116.69C222.028 117.97 221.004 119.346 220.236 120.818C219.532 122.226 219.18 123.442 219.18 124.466V135.314C219.18 136.722 219.18 137.874 219.18 138.77C219.18 139.666 219.18 140.434 219.18 141.074C219.244 141.714 219.308 142.322 219.372 142.898C219.436 143.41 219.5 143.986 219.564 144.626C219.692 145.97 219.82 146.994 219.948 147.698C220.14 148.338 220.492 148.882 221.004 149.33C221.516 149.778 222.22 150.066 223.116 150.194C224.076 150.322 225.036 150.386 225.996 150.386L226.476 150.866L226.668 152.114L226.476 152.498C226.028 152.498 225.356 152.466 224.46 152.402C223.564 152.338 222.604 152.274 221.58 152.21C220.556 152.21 219.596 152.178 218.7 152.114C217.804 152.114 217.132 152.114 216.684 152.114H215.34C214.892 152.114 214.188 152.114 213.228 152.114C212.332 152.178 211.372 152.21 210.348 152.21C209.388 152.274 208.428 152.338 207.468 152.402C206.572 152.466 205.9 152.498 205.452 152.498L205.356 152.114L205.452 150.77L205.836 150.386C206.86 150.386 207.852 150.354 208.812 150.29C209.836 150.162 210.604 149.842 211.116 149.33C211.628 148.882 211.948 148.306 212.076 147.602C212.268 146.898 212.428 145.906 212.556 144.626C212.62 143.602 212.684 142.578 212.748 141.554C212.812 140.466 212.844 138.77 212.844 136.466V124.658C212.844 123.314 212.844 122.194 212.844 121.298C212.844 120.338 212.812 119.506 212.748 118.802C212.748 118.098 212.716 117.458 212.652 116.882C212.652 116.306 212.62 115.698 212.556 115.058C212.428 114.354 212.236 113.746 211.98 113.234C211.724 112.658 211.5 112.274 211.308 112.082C210.668 111.314 209.868 110.866 208.908 110.738C207.948 110.546 206.956 110.45 205.932 110.45L205.548 110.066V108.722L205.932 108.434H207.66C208.748 108.434 210.124 108.434 211.788 108.434C213.452 108.37 214.892 108.242 216.108 108.05L219.468 107.57L220.044 108.434C219.724 109.266 219.5 110.418 219.372 111.89C219.244 113.298 219.148 114.674 219.084 116.018L219.372 116.21Z" fill="#112C23"/>
<path d="M197.927 126.29L196.391 126.962C192.935 126.962 189.383 126.994 185.735 127.058C182.087 127.122 178.503 127.154 174.983 127.154H163.655C163.591 127.602 163.559 128.05 163.559 128.498C163.559 128.882 163.559 129.266 163.559 129.65C163.559 132.082 163.911 134.418 164.615 136.658C165.319 138.834 166.407 140.754 167.879 142.418C169.415 144.082 171.367 145.426 173.735 146.45C176.103 147.41 178.983 147.89 182.375 147.89C184.359 147.89 186.471 147.698 188.711 147.314C191.015 146.866 193.127 146.098 195.047 145.01L196.007 145.586V147.314L195.047 148.37C193.511 149.586 191.335 150.706 188.519 151.73C185.703 152.69 182.567 153.17 179.111 153.17C175.719 153.17 172.615 152.626 169.799 151.538C167.047 150.386 164.647 148.786 162.599 146.738C160.615 144.69 159.047 142.258 157.895 139.442C156.807 136.626 156.263 133.49 156.263 130.034C156.263 126.514 156.839 123.314 157.991 120.434C159.143 117.554 160.711 115.09 162.695 113.042C164.743 110.994 167.111 109.394 169.799 108.242C172.551 107.09 175.495 106.514 178.631 106.514C180.295 106.514 182.151 106.738 184.199 107.186C186.311 107.634 188.327 108.498 190.247 109.778C192.167 110.994 193.895 112.754 195.431 115.058C196.967 117.298 198.023 120.274 198.599 123.986L197.927 126.29ZM178.727 110.834C176.679 110.834 174.823 111.186 173.159 111.89C171.559 112.53 170.119 113.426 168.839 114.578C167.623 115.666 166.599 116.978 165.767 118.514C164.999 119.986 164.455 121.554 164.135 123.218H167.879C171.335 123.218 174.695 123.186 177.959 123.122C181.223 122.994 184.647 122.834 188.231 122.642C189.063 122.578 189.607 122.354 189.863 121.97C190.183 121.586 190.343 121.138 190.343 120.626C190.343 120.242 190.311 119.89 190.247 119.57C190.183 119.25 190.087 118.93 189.959 118.61C189.255 116.178 187.943 114.29 186.023 112.946C184.103 111.538 181.671 110.834 178.727 110.834Z" fill="#112C23"/>
<path d="M147.49 126.29L145.954 126.962C142.498 126.962 138.946 126.994 135.298 127.058C131.65 127.122 128.066 127.154 124.546 127.154H113.218C113.154 127.602 113.122 128.05 113.122 128.498C113.122 128.882 113.122 129.266 113.122 129.65C113.122 132.082 113.474 134.418 114.178 136.658C114.882 138.834 115.97 140.754 117.442 142.418C118.978 144.082 120.93 145.426 123.298 146.45C125.666 147.41 128.546 147.89 131.938 147.89C133.922 147.89 136.034 147.698 138.274 147.314C140.578 146.866 142.69 146.098 144.61 145.01L145.57 145.586V147.314L144.61 148.37C143.074 149.586 140.898 150.706 138.082 151.73C135.266 152.69 132.13 153.17 128.674 153.17C125.282 153.17 122.178 152.626 119.362 151.538C116.61 150.386 114.21 148.786 112.162 146.738C110.178 144.69 108.61 142.258 107.458 139.442C106.37 136.626 105.826 133.49 105.826 130.034C105.826 126.514 106.402 123.314 107.554 120.434C108.706 117.554 110.274 115.09 112.258 113.042C114.306 110.994 116.674 109.394 119.362 108.242C122.114 107.09 125.058 106.514 128.194 106.514C129.858 106.514 131.714 106.738 133.762 107.186C135.874 107.634 137.89 108.498 139.81 109.778C141.73 110.994 143.458 112.754 144.994 115.058C146.53 117.298 147.586 120.274 148.162 123.986L147.49 126.29ZM128.29 110.834C126.242 110.834 124.386 111.186 122.722 111.89C121.122 112.53 119.682 113.426 118.402 114.578C117.186 115.666 116.162 116.978 115.33 118.514C114.562 119.986 114.018 121.554 113.698 123.218H117.442C120.898 123.218 124.258 123.186 127.522 123.122C130.786 122.994 134.21 122.834 137.794 122.642C138.626 122.578 139.17 122.354 139.426 121.97C139.746 121.586 139.906 121.138 139.906 120.626C139.906 120.242 139.874 119.89 139.81 119.57C139.746 119.25 139.65 118.93 139.522 118.61C138.818 116.178 137.506 114.29 135.586 112.946C133.666 111.538 131.234 110.834 128.29 110.834Z" fill="#112C23"/>
<path d="M79.7764 118.13C80.4164 116.914 81.1205 115.634 81.8885 114.29C82.7205 112.946 83.6484 111.698 84.6724 110.546C85.6964 109.394 86.8484 108.434 88.1284 107.666C89.4725 106.898 90.9764 106.514 92.6404 106.514C93.7924 106.514 95.0724 106.706 96.4804 107.09C97.9524 107.41 98.9445 107.858 99.4565 108.434L100.224 109.298L99.0724 116.69H95.9044C95.7124 115.794 95.2004 114.994 94.3684 114.29C93.6004 113.522 92.3845 113.138 90.7205 113.138C89.1205 113.138 87.6485 113.618 86.3045 114.578C84.9605 115.474 83.7764 116.626 82.7524 118.034C81.7924 119.442 81.0244 120.946 80.4484 122.546C79.9364 124.082 79.6805 125.49 79.6805 126.77V135.314C79.6805 136.722 79.6805 137.874 79.6805 138.77C79.7444 139.602 79.7764 140.338 79.7764 140.978C79.8404 141.554 79.8724 142.066 79.8724 142.514C79.9364 142.898 79.9684 143.314 79.9684 143.762L80.0644 144.626C80.1924 145.586 80.3204 146.514 80.4484 147.41C80.6404 148.242 80.9924 148.882 81.5044 149.33C81.8244 149.586 82.2724 149.778 82.8484 149.906C83.4884 150.034 84.1284 150.13 84.7684 150.194C85.4724 150.258 86.1444 150.322 86.7844 150.386C87.4244 150.386 87.9365 150.386 88.3204 150.386L88.8005 150.866L88.9924 152.114L88.8005 152.498C88.3525 152.498 87.6164 152.466 86.5924 152.402C85.6324 152.338 84.6084 152.274 83.5204 152.21C82.4324 152.21 81.3764 152.178 80.3524 152.114C79.3924 152.114 78.6884 152.114 78.2404 152.114H75.9364C75.4884 152.114 74.7844 152.114 73.8244 152.114C72.9284 152.178 71.9685 152.21 70.9445 152.21C69.9205 152.274 68.9284 152.338 67.9684 152.402C67.0724 152.466 66.4004 152.498 65.9524 152.498L65.8564 152.114L65.9524 150.77L66.3364 150.386C67.3604 150.386 68.3524 150.354 69.3124 150.29C70.3364 150.162 71.1044 149.842 71.6164 149.33C72.1284 148.882 72.4484 148.306 72.5764 147.602C72.7684 146.898 72.9284 145.906 73.0564 144.626L73.1525 143.762C73.2165 143.122 73.2484 142.322 73.2484 141.362C73.3124 140.402 73.3444 138.77 73.3444 136.466V124.658C73.3444 123.314 73.3444 122.194 73.3444 121.298C73.3444 120.338 73.3124 119.506 73.2484 118.802C73.2484 118.098 73.2165 117.458 73.1525 116.882C73.1525 116.306 73.1204 115.698 73.0564 115.058C72.9284 114.354 72.7364 113.746 72.4804 113.234C72.2244 112.658 72.0004 112.274 71.8084 112.082C71.1684 111.314 70.3684 110.866 69.4084 110.738C68.4484 110.546 67.4564 110.45 66.4324 110.45L66.0484 110.066V108.722L66.4324 108.434H68.1604C69.2484 108.434 70.6244 108.434 72.2884 108.434C73.9524 108.37 75.3924 108.242 76.6084 108.05L79.9684 107.57L80.5444 108.434C80.1604 109.778 79.8724 111.314 79.6805 113.042C79.5525 114.77 79.4884 116.434 79.4884 118.034L79.7764 118.13Z" fill="#112C23"/>
<path d="M53.088 149.714C50.016 150.674 46.784 151.474 43.392 152.114C40.064 152.818 36.576 153.17 32.928 153.17C27.36 153.17 22.496 152.338 18.336 150.674C14.24 148.946 10.816 146.61 8.064 143.666C5.376 140.722 3.36 137.298 2.016 133.394C0.672 129.49 0 125.362 0 121.01C0 116.402 0.704 112.114 2.112 108.146C3.584 104.178 5.728 100.722 8.544 97.7779C11.36 94.8339 14.848 92.5299 19.008 90.8659C23.168 89.1379 28 88.2739 33.504 88.2739C34.656 88.2739 36.032 88.3379 37.632 88.4659C39.296 88.5299 41.024 88.6899 42.816 88.9459C44.608 89.2019 46.432 89.5539 48.288 90.0019C50.144 90.3859 51.904 90.8979 53.568 91.5379L53.76 92.4019L52.128 101.714H49.44L49.056 101.426C48.608 98.8659 47.104 96.8819 44.544 95.4739C42.048 94.0659 38.208 93.3619 33.024 93.3619C25.792 93.3619 20.288 94.8659 16.512 97.8739C14.976 99.0899 13.664 100.53 12.576 102.194C11.488 103.858 10.56 105.682 9.792 107.666C9.088 109.65 8.544 111.762 8.16 114.002C7.84 116.178 7.68 118.354 7.68 120.53C7.68 124.818 8.288 128.658 9.504 132.05C10.784 135.442 12.512 138.322 14.688 140.69C16.864 142.994 19.456 144.786 22.464 146.066C25.472 147.282 28.736 147.89 32.256 147.89C33.344 147.89 34.56 147.858 35.904 147.794C37.312 147.666 38.656 147.506 39.936 147.314C41.28 147.122 42.464 146.898 43.488 146.642C44.512 146.386 45.216 146.13 45.6 145.874C46.112 145.554 46.368 144.882 46.368 143.858C46.368 143.41 46.368 142.802 46.368 142.034C46.368 141.266 46.368 140.466 46.368 139.634C46.368 138.738 46.336 137.874 46.272 137.042C46.272 136.146 46.24 135.378 46.176 134.738C46.048 133.074 45.696 131.826 45.12 130.994C44.608 130.098 44.16 129.522 43.776 129.266C43.2 128.818 42.336 128.562 41.184 128.498C40.032 128.37 38.944 128.306 37.92 128.306L37.44 127.922L37.152 125.81L37.344 125.426C37.792 125.426 38.496 125.458 39.456 125.522C40.48 125.586 41.504 125.65 42.528 125.714C43.616 125.778 44.64 125.842 45.6 125.906C46.624 125.97 47.36 126.002 47.808 126.002H50.688C51.136 126.002 51.744 125.97 52.512 125.906C53.28 125.842 54.08 125.778 54.912 125.714C55.744 125.65 56.544 125.586 57.312 125.522C58.08 125.458 58.688 125.426 59.136 125.426L59.328 125.81L59.136 128.114L58.656 128.498C56.8 128.498 55.488 129.042 54.72 130.13C54.016 131.154 53.6 132.69 53.472 134.738C53.344 136.338 53.248 138.066 53.184 139.922C53.184 141.714 53.184 143.058 53.184 143.954C53.184 144.914 53.184 145.97 53.184 147.122C53.248 148.21 53.344 148.914 53.472 149.234L53.088 149.714Z" fill="#112C23"/>
</svg>
